<mxfile host="app.diagrams.net" modified="2023-12-12T09:15:44.763Z" agent="Mozilla/5.0 (Windows NT 10.0; Win64; x64) AppleWebKit/537.36 (KHTML, like Gecko) Chrome/120.0.0.0 Safari/537.36" version="22.1.7" etag="n0hOWr8lhBYK0gJiPhAL" type="github">
  <diagram name="第 1 页" id="ou28mf4Kgu_v18FnRGUl">
    <mxGraphModel>
      <root>
        <mxCell id="0" />
        <mxCell id="1" parent="0" />
      </root>
    </mxGraphModel>
  </diagram>
</mxfile>
